<?xml version="1.0" encoding="UTF-8" standalone="no"?>
<svg width="31px" height="29px" viewBox="0 0 31 29" version="1.1" xmlns="http://www.w3.org/2000/svg" xmlns:xlink="http://www.w3.org/1999/xlink">
    <!-- Generator: Sketch 3.7.2 (28276) - http://www.bohemiancoding.com/sketch -->
    <title>download</title>
    <desc>Created with Sketch.</desc>
    <defs>
        <polygon id="path-1" points="0.0357692308 0.519497636 0.0357692308 10.7966726 30.4879038 10.7966726 30.4879038 0.519497636"></polygon>
    </defs>
    <g id="Главная" stroke="none" stroke-width="1" fill="none" fill-rule="evenodd" opacity="0.9">
        <g id="стр-программы-+-PDF" transform="translate(-542.000000, -3193.000000)">
            <g id="download" transform="translate(542.000000, 3193.000000)">
                <g id="Group-3" transform="translate(0.000000, 17.396572)">
                    <mask id="mask-2" fill="white">
                        <use xlink:href="#path-1"></use>
                    </mask>
                    <g id="Clip-2"></g>
                    <path d="M30.4879038,1.68626773 C30.4879038,1.04199468 29.9686538,0.519497636 29.3254038,0.519497636 C28.68275,0.519497636 28.1635,1.04199468 28.1635,1.68626773 L28.1635,8.46073286 L2.32380769,8.46073286 L2.32380769,1.68626773 C2.32380769,1.04199468 1.80455769,0.519497636 1.16190385,0.519497636 C0.51925,0.519497636 0,1.04199468 0,1.68626773 L0,9.14279846 C0,9.22918144 0.0327884615,9.30416667 0.0488846154,9.38635047 C0.0327884615,9.46613475 0,9.5435195 0,9.62990248 C0,10.2741755 0.51925,10.7966726 1.16190385,10.7966726 L29.3254038,10.7966726 C29.9686538,10.7966726 30.4879038,10.2741755 30.4879038,9.62990248 C30.4879038,9.5435195 30.4575,9.46613475 30.4390192,9.38635047 C30.4575,9.30416667 30.4879038,9.22918144 30.4879038,9.14279846 L30.4879038,1.68626773 Z" id="Fill-1" fill="#B3C7D6" mask="url(#mask-2)"></path>
                </g>
                <path d="M15.3157885,0.479305556 C14.6755192,0.479305556 14.1538846,1.0018026 14.1538846,1.64847518 L14.1538846,18.721711 L9.09611538,13.6323138 C8.64423077,13.1752039 7.90857692,13.1752039 7.45430769,13.6323138 C7.00003846,14.0870242 7.00003846,14.8272784 7.45430769,15.2843883 L14.4960769,22.3701921 C14.7220192,22.5975473 15.0200962,22.7127246 15.3181731,22.7127246 C15.6138654,22.7127246 15.9119423,22.5975473 16.1378846,22.3701921 L23.18025,15.2843883 C23.6345192,14.8272784 23.6345192,14.0870242 23.18025,13.6323138 C22.7259808,13.1752039 21.9903269,13.1752039 21.5384423,13.6323138 L16.4782885,18.721711 L16.4782885,1.64847518 C16.4782885,1.0018026 15.9590385,0.479305556 15.3157885,0.479305556 L15.3157885,0.479305556 Z" id="Fill-4" fill="#B4C7D5"></path>
            </g>
        </g>
    </g>
</svg>